<?xml version="1.0" standalone="no"?>
<!DOCTYPE svg PUBLIC "-//W3C//DTD SVG 20010904//EN"
 "http://www.w3.org/TR/2001/REC-SVG-20010904/DTD/svg10.dtd">
<svg version="1.0" xmlns="http://www.w3.org/2000/svg"
 width="302.000000pt" height="302.000000pt" viewBox="0 0 302.000000 302.000000"
 preserveAspectRatio="xMidYMid meet">
<metadata>
Created by potrace 1.11, written by Peter Selinger 2001-2013
</metadata>
<g transform="translate(0.000000,302.000000) scale(0.100000,-0.100000)"
fill="#000000" stroke="none">
<path d="M1325 3003 c-136 -18 -327 -71 -437 -121 -123 -56 -338 -192 -338
-215 0 -8 155 -201 205 -255 10 -11 25 -5 81 36 289 210 691 268 1037 151 270
-92 512 -301 645 -557 56 -106 79 -173 107 -302 20 -88 23 -128 20 -250 -3
-147 -5 -159 -31 -265 -33 -132 -103 -280 -182 -388 -36 -49 -41 -62 -30 -72
49 -46 249 -205 256 -205 10 0 78 94 128 175 194 318 256 702 180 1104 -15 79
-80 256 -129 352 -180 352 -496 625 -863 743 -167 54 -248 67 -439 70 -99 2
-193 2 -210 -1z"/>
<path d="M1375 2518 c-209 -25 -413 -121 -569 -268 -95 -89 -159 -177 -216
-295 -140 -288 -140 -604 -1 -890 216 -440 707 -662 1181 -534 299 81 558 312
673 602 106 266 94 564 -32 822 -72 146 -185 283 -311 376 -107 79 -284 155
-415 178 -85 15 -228 19 -310 9z m326 -102 c174 -42 323 -123 446 -244 325
-319 371 -813 113 -1192 -60 -87 -217 -240 -247 -240 -6 0 -16 -6 -22 -14 -19
-23 -154 -84 -235 -106 -114 -32 -113 -32 -240 -34 -367 -7 -680 184 -849 521
-67 131 -92 249 -91 418 2 345 197 656 511 814 85 43 189 76 268 87 28 3 51 7
53 9 10 9 237 -6 293 -19z"/>
<path d="M289 2398 c-100 -137 -170 -277 -219 -433 -57 -182 -70 -279 -66
-485 5 -243 45 -413 147 -625 190 -395 554 -693 974 -799 139 -35 200 -41 395
-40 142 0 195 4 280 23 181 39 337 100 480 188 94 59 170 115 170 126 0 8
-210 267 -217 267 -1 0 -31 -21 -65 -46 -120 -89 -311 -169 -475 -199 -126
-22 -353 -13 -478 20 -444 117 -774 480 -853 940 -9 51 -9 298 0 350 30 179
106 362 206 498 36 49 41 62 30 72 -48 44 -248 205 -255 205 -5 0 -30 -28 -54
-62z"/>
</g>
</svg>
